<svg width="50" height="50" viewBox="0 0 50 50" fill="none" xmlns="http://www.w3.org/2000/svg">
<path fill-rule="evenodd" clip-rule="evenodd" d="M50 13.8805V1.11731C50 0.500247 49.4321 0 48.7317 0C47.6266 0 46.0322 0 44.927 0C44.5906 0 44.2681 0.117721 44.0302 0.327252C43.7923 0.536784 43.6588 0.820997 43.6588 1.11731C43.6588 3.23297 43.6588 7.84303 43.6588 10.4293C43.6588 11.577 42.9638 12.6375 41.8357 13.2113C35.9382 16.211 17.3185 25.6818 9.67041 29.572C8.9837 29.9213 8.13767 29.9213 7.45096 29.572C6.76428 29.2227 6.34127 28.5772 6.34127 27.8786C6.34127 20.9418 6.34127 5.4091 6.34127 1.11731C6.34127 0.500247 5.77345 0 5.073 0C3.96784 0 2.37342 0 1.26826 0C0.931923 0 0.609319 0.117721 0.371485 0.327252C0.133651 0.536784 2.85355e-05 0.820997 2.85355e-05 1.11731C2.85355e-05 7.20411 2.85355e-05 36.0924 2.85355e-05 36.0924C-9.51184e-06 36.1015 -9.51184e-06 36.1105 2.85355e-05 36.1195V48.8827C2.85355e-05 49.4998 0.567847 50 1.26826 50C2.37342 50 3.96784 50 5.073 50C5.40937 50 5.73194 49.8823 5.96977 49.6728C6.20765 49.4632 6.34127 49.179 6.34127 48.8827C6.34127 46.767 6.34127 42.157 6.34127 39.5706C6.34127 38.423 7.0362 37.3625 8.16435 36.7887C14.0618 33.789 32.6815 24.3182 40.3296 20.428C41.0163 20.0787 41.8624 20.0787 42.549 20.428C43.2357 20.7773 43.6588 21.4228 43.6588 22.1214C43.6588 29.0582 43.6588 44.5909 43.6588 48.8827C43.6588 49.4998 44.2266 50 44.927 50C46.0322 50 47.6266 50 48.7317 50C49.0681 50 49.3907 49.8823 49.6285 49.6728C49.8663 49.4632 50 49.179 50 48.8827C50 42.7959 50 13.9076 50 13.9076C50 13.8985 50 13.8895 50 13.8805Z" fill="url(#paint0_linear_58_3)"/>
<defs>
<linearGradient id="paint0_linear_58_3" x1="25" y1="0" x2="25" y2="50" gradientUnits="userSpaceOnUse">
<stop stop-color="#0FF59C"/>
<stop offset="1" stop-color="#017A4B"/>
</linearGradient>
</defs>
</svg>
