<svg width="41" height="40" viewBox="0 0 41 40" fill="none" xmlns="http://www.w3.org/2000/svg">
<path fill-rule="evenodd" clip-rule="evenodd" d="M40.5 11.1044V0.893849C40.5 0.400198 40.0457 0 39.4854 0C38.6013 0 37.3257 0 36.4416 0C36.1725 0 35.9144 0.0941768 35.7242 0.261802C35.5339 0.429427 35.427 0.656798 35.427 0.893849C35.427 2.58638 35.427 6.27442 35.427 8.34347C35.427 9.26159 34.871 10.11 33.9685 10.569C29.2505 12.9688 14.3548 20.5454 8.23633 23.6576C7.68696 23.937 7.01014 23.937 6.46077 23.6576C5.91142 23.3781 5.57301 22.8617 5.57301 22.3029C5.57301 16.7534 5.57301 4.32728 5.57301 0.893849C5.57301 0.400198 5.11876 0 4.5584 0C3.67427 0 2.39874 0 1.51461 0C1.24554 0 0.987455 0.0941768 0.797188 0.261802C0.606921 0.429427 0.500023 0.656798 0.500023 0.893849C0.500023 5.76329 0.500023 28.8739 0.500023 28.8739C0.499992 28.8812 0.499992 28.8884 0.500023 28.8956V39.1061C0.500023 39.5998 0.954278 40 1.51461 40C2.39874 40 3.67427 40 4.5584 40C4.8275 40 5.08555 39.9058 5.27582 39.7382C5.46612 39.5705 5.57301 39.3432 5.57301 39.1061C5.57301 37.4136 5.57301 33.7256 5.57301 31.6565C5.57301 30.7384 6.12896 29.89 7.03148 29.431C11.7495 27.0312 26.6452 19.4546 32.7637 16.3424C33.313 16.063 33.9899 16.063 34.5392 16.3424C35.0886 16.6218 35.427 17.1383 35.427 17.6971C35.427 23.2466 35.427 35.6727 35.427 39.1061C35.427 39.5998 35.8812 40 36.4416 40C37.3257 40 38.6013 40 39.4854 40C39.7545 40 40.0125 39.9058 40.2028 39.7382C40.3931 39.5705 40.5 39.3432 40.5 39.1061C40.5 34.2367 40.5 11.1261 40.5 11.1261C40.5 11.1188 40.5 11.1116 40.5 11.1044Z" fill="url(#paint0_linear_55_450)"/>
<defs>
<linearGradient id="paint0_linear_55_450" x1="20.5" y1="0" x2="20.5" y2="40" gradientUnits="userSpaceOnUse">
<stop stop-color="#ADADAD"/>
<stop offset="1" stop-color="#474747"/>
</linearGradient>
</defs>
</svg>
